<svg xmlns="http://www.w3.org/2000/svg" xmlns:xlink="http://www.w3.org/1999/xlink" width="2500" zoomAndPan="magnify" viewBox="0 0 1874.88 2250.000011" height="3000" preserveAspectRatio="xMidYMid meet" version="1.0"><defs><g/><clipPath id="133ba7c254"><path d="M 0.355469 0 L 1874.402344 0 L 1874.402344 2249 L 0.355469 2249 Z M 0.355469 0 " clip-rule="nonzero"/></clipPath></defs><g clip-path="url(#133ba7c254)"><path fill="#ffffff" d="M 0.355469 0 L 1874.523438 0 L 1874.523438 2249 L 0.355469 2249 Z M 0.355469 0 " fill-opacity="1" fill-rule="nonzero"/><path fill="#ffffff" d="M 0.355469 0 L 1874.523438 0 L 1874.523438 2249 L 0.355469 2249 Z M 0.355469 0 " fill-opacity="1" fill-rule="nonzero"/></g><g fill="#000000" fill-opacity="1"><g transform="translate(719.223258, 1464.404)"><g><path d="M 57.546875 0 L 57.546875 -80.71875 C 125.160156 -138.125 174.144531 -181.25 204.5 -210.09375 C 234.863281 -238.9375 259.976562 -264.601562 279.84375 -287.09375 C 299.71875 -309.582031 315.101562 -331.519531 326 -352.90625 C 336.90625 -374.300781 342.359375 -397.695312 342.359375 -423.09375 C 342.359375 -451.507812 332.972656 -474.273438 314.203125 -491.390625 C 295.441406 -508.503906 270.46875 -517.0625 239.28125 -517.0625 C 209.75 -517.0625 185.664062 -510.570312 167.03125 -497.59375 C 148.40625 -484.625 132.609375 -467.65625 119.640625 -446.6875 L 55.890625 -487.671875 C 75.753906 -521.890625 101.28125 -546.65625 132.46875 -561.96875 C 163.65625 -577.289062 200.363281 -584.953125 242.59375 -584.953125 C 298.0625 -584.953125 342.007812 -571.21875 374.4375 -543.75 C 406.875 -516.289062 423.09375 -477.445312 423.09375 -427.21875 C 423.09375 -401.832031 419.503906 -378.03125 412.328125 -355.8125 C 405.148438 -333.59375 393.898438 -312.410156 378.578125 -292.265625 C 363.265625 -272.117188 342.703125 -249.070312 316.890625 -223.125 C 291.085938 -197.1875 233.476562 -145.992188 144.0625 -69.546875 L 441.71875 -69.546875 L 441.71875 0 Z M 57.546875 0 "/></g></g></g></svg>