<svg xmlns="http://www.w3.org/2000/svg" xmlns:xlink="http://www.w3.org/1999/xlink" width="2500" zoomAndPan="magnify" viewBox="0 0 1874.88 2250.000011" height="3000" preserveAspectRatio="xMidYMid meet" version="1.0"><defs><g/><clipPath id="d1ddd4e865"><path d="M 0.355469 0 L 1874.402344 0 L 1874.402344 2249 L 0.355469 2249 Z M 0.355469 0 " clip-rule="nonzero"/></clipPath></defs><g clip-path="url(#d1ddd4e865)"><path fill="#ffffff" d="M 0.355469 0 L 1874.523438 0 L 1874.523438 2249 L 0.355469 2249 Z M 0.355469 0 " fill-opacity="1" fill-rule="nonzero"/><path fill="#ffffff" d="M 0.355469 0 L 1874.523438 0 L 1874.523438 2249 L 0.355469 2249 Z M 0.355469 0 " fill-opacity="1" fill-rule="nonzero"/></g><g fill="#000000" fill-opacity="1"><g transform="translate(719.223258, 1464.404)"><g><path d="M 423.921875 -163.515625 C 423.921875 -104.734375 406.117188 -60.785156 370.515625 -31.671875 C 334.910156 -2.554688 284.539062 12 219.40625 12 C 180.488281 12 144.953125 4.34375 112.796875 -10.96875 C 80.648438 -26.289062 57.125 -46.644531 42.21875 -72.03125 L 105.984375 -112.609375 C 116.191406 -96.867188 131.023438 -83.34375 150.484375 -72.03125 C 169.941406 -60.71875 192.640625 -55.0625 218.578125 -55.0625 C 261.628906 -55.0625 293.160156 -64.238281 313.171875 -82.59375 C 333.179688 -100.945312 343.1875 -129.71875 343.1875 -168.90625 C 343.1875 -237.070312 299.441406 -271.15625 211.953125 -271.15625 L 169.734375 -271.15625 L 169.734375 -337.390625 L 205.328125 -337.390625 C 244.796875 -337.390625 275.984375 -345.875 298.890625 -362.84375 C 321.796875 -379.820312 333.25 -403.90625 333.25 -435.09375 C 333.25 -463.238281 323.929688 -484.070312 305.296875 -497.59375 C 286.671875 -511.125 262.039062 -517.890625 231.40625 -517.890625 C 178.976562 -517.890625 139.101562 -496.773438 111.78125 -454.546875 L 47.609375 -495.125 C 64.722656 -525.195312 89.421875 -547.6875 121.703125 -562.59375 C 153.992188 -577.5 192.21875 -584.953125 236.375 -584.953125 C 273.363281 -584.953125 305.242188 -579.289062 332.015625 -567.96875 C 358.785156 -556.65625 379.066406 -540.582031 392.859375 -519.75 C 406.660156 -498.914062 413.5625 -474.5625 413.5625 -446.6875 C 413.5625 -408.320312 404.109375 -378.097656 385.203125 -356.015625 C 366.296875 -333.941406 337.390625 -318.070312 298.484375 -308.40625 C 334.628906 -305.65625 364.570312 -292.132812 388.3125 -267.84375 C 412.050781 -243.550781 423.921875 -208.773438 423.921875 -163.515625 Z M 423.921875 -163.515625 "/></g></g></g></svg>