<svg xmlns="http://www.w3.org/2000/svg" xmlns:xlink="http://www.w3.org/1999/xlink" width="2500" zoomAndPan="magnify" viewBox="0 0 1874.88 2250.000011" height="3000" preserveAspectRatio="xMidYMid meet" version="1.0"><defs><g/><clipPath id="5665f50152"><path d="M 0.355469 0 L 1874.402344 0 L 1874.402344 2249 L 0.355469 2249 Z M 0.355469 0 " clip-rule="nonzero"/></clipPath></defs><g clip-path="url(#5665f50152)"><path fill="#ffffff" d="M 0.355469 0 L 1874.523438 0 L 1874.523438 2249 L 0.355469 2249 Z M 0.355469 0 " fill-opacity="1" fill-rule="nonzero"/><path fill="#ffffff" d="M 0.355469 0 L 1874.523438 0 L 1874.523438 2249 L 0.355469 2249 Z M 0.355469 0 " fill-opacity="1" fill-rule="nonzero"/></g><g fill="#000000" fill-opacity="1"><g transform="translate(719.223258, 1464.404)"><g><path d="M 432.1875 -182.984375 C 432.1875 -123.085938 414.867188 -75.613281 380.234375 -40.5625 C 345.597656 -5.519531 294.0625 12 225.625 12 C 181.457031 12 144.125 3.789062 113.625 -12.625 C 83.132812 -29.050781 60.851562 -48.851562 46.78125 -72.03125 L 110.125 -113.4375 C 119.78125 -98.25 134.195312 -84.722656 153.375 -72.859375 C 172.5625 -60.992188 196.09375 -55.0625 223.96875 -55.0625 C 266.738281 -55.0625 298.882812 -66.515625 320.40625 -89.421875 C 341.9375 -112.328125 352.703125 -143.515625 352.703125 -182.984375 C 352.703125 -217.472656 341.660156 -244.789062 319.578125 -264.9375 C 297.503906 -285.09375 265.910156 -295.171875 224.796875 -295.171875 C 183.671875 -295.171875 148.066406 -285.234375 117.984375 -265.359375 L 80.71875 -265.359375 L 111.78125 -572.953125 L 411.90625 -572.953125 L 411.90625 -503.8125 L 174.703125 -503.8125 L 156.890625 -339.875 C 168.765625 -346.21875 182.910156 -351.046875 199.328125 -354.359375 C 215.753906 -357.671875 231.832031 -359.328125 247.5625 -359.328125 C 306.34375 -359.328125 351.804688 -344.421875 383.953125 -314.609375 C 416.109375 -284.804688 432.1875 -240.929688 432.1875 -182.984375 Z M 432.1875 -182.984375 "/></g></g></g></svg>