<svg xmlns="http://www.w3.org/2000/svg" xmlns:xlink="http://www.w3.org/1999/xlink" width="2500" zoomAndPan="magnify" viewBox="0 0 1874.88 2250.000011" height="3000" preserveAspectRatio="xMidYMid meet" version="1.0"><defs><g/><clipPath id="3f29377742"><path d="M 0.355469 0 L 1874.402344 0 L 1874.402344 2249 L 0.355469 2249 Z M 0.355469 0 " clip-rule="nonzero"/></clipPath></defs><g clip-path="url(#3f29377742)"><path fill="#ffffff" d="M 0.355469 0 L 1874.523438 0 L 1874.523438 2249 L 0.355469 2249 Z M 0.355469 0 " fill-opacity="1" fill-rule="nonzero"/><path fill="#ffffff" d="M 0.355469 0 L 1874.523438 0 L 1874.523438 2249 L 0.355469 2249 Z M 0.355469 0 " fill-opacity="1" fill-rule="nonzero"/></g><g fill="#000000" fill-opacity="1"><g transform="translate(703.493666, 1464.404)"><g><path d="M 395.765625 -127.09375 L 395.765625 0 L 322.078125 0 L 322.078125 -127.09375 L 27.328125 -127.09375 L 27.328125 -200.78125 L 325.390625 -572.953125 L 395.765625 -572.953125 L 395.765625 -193.328125 L 474.828125 -193.328125 L 474.828125 -127.09375 Z M 322.078125 -463.65625 L 102.671875 -193.328125 L 322.078125 -193.328125 Z M 322.078125 -463.65625 "/></g></g></g></svg>