<svg xmlns="http://www.w3.org/2000/svg" xmlns:xlink="http://www.w3.org/1999/xlink" width="2500" zoomAndPan="magnify" viewBox="0 0 1874.88 2250.000011" height="3000" preserveAspectRatio="xMidYMid meet" version="1.0"><defs><g/><clipPath id="22cfe3d8a1"><path d="M 0.355469 0 L 1874.402344 0 L 1874.402344 2249 L 0.355469 2249 Z M 0.355469 0 " clip-rule="nonzero"/></clipPath></defs><g clip-path="url(#22cfe3d8a1)"><path fill="#ffffff" d="M 0.355469 0 L 1874.523438 0 L 1874.523438 2249 L 0.355469 2249 Z M 0.355469 0 " fill-opacity="1" fill-rule="nonzero"/><path fill="#ffffff" d="M 0.355469 0 L 1874.523438 0 L 1874.523438 2249 L 0.355469 2249 Z M 0.355469 0 " fill-opacity="1" fill-rule="nonzero"/></g><g fill="#000000" fill-opacity="1"><g transform="translate(703.493666, 1464.404)"><g><path d="M 255.015625 0 L 255.015625 -409.421875 L 116.328125 -409.421875 L 116.328125 -462.828125 C 153.859375 -465.035156 182.210938 -469.453125 201.390625 -476.078125 C 220.578125 -482.703125 235.550781 -492.773438 246.3125 -506.296875 C 257.082031 -519.816406 266.601562 -542.035156 274.875 -572.953125 L 329.9375 -572.953125 L 329.9375 0 Z M 255.015625 0 "/></g></g></g></svg>